PathFileType	4	(X/Y/Z)	 s11c0201.trc
DataRate	CameraRate	NumFrames	NumMarkers	Units	OrigDataRate	OrigDataStartFrame	OrigNumFrames
200	200	6	48	mm	200	1001	2000
Frame#	Time	racr			lacr			c7			jug			rlel			rdr			llel			ldr			s2			lic			ric			lasi			rasi			rpsi			lpsi			rgt			lgt			rth1			rth2			rth3			rth4			rlfc			rmfc			rsh1			rsh2			rsh3			rsh4			rlmal			rcal			rtoe			rmt5			lth1			lth2			lth4			lth3			llfc			lmfc			llmal			lcal			lmt5			lsh1			lsh2			lsh3			lsh4			ltoe			SBIKE			LBIKE			RBIKE			
		X1	Y1	Z1	X2	Y2	Z2	X3	Y3	Z3	X4	Y4	Z4	X5	Y5	Z5	X6	Y6	Z6	X7	Y7	Z7	X8	Y8	Z8	X9	Y9	Z9	X10	Y10	Z10	X11	Y11	Z11	X12	Y12	Z12	X13	Y13	Z13	X14	Y14	Z14	X15	Y15	Z15	X16	Y16	Z16	X17	Y17	Z17	X18	Y18	Z18	X19	Y19	Z19	X20	Y20	Z20	X21	Y21	Z21	X22	Y22	Z22	X23	Y23	Z23	X24	Y24	Z24	X25	Y25	Z25	X26	Y26	Z26	X27	Y27	Z27	X28	Y28	Z28	X29	Y29	Z29	X30	Y30	Z30	X31	Y31	Z31	X32	Y32	Z32	X33	Y33	Z33	X34	Y34	Z34	X35	Y35	Z35	X36	Y36	Z36	X37	Y37	Z37	X38	Y38	Z38	X39	Y39	Z39	X40	Y40	Z40	X41	Y41	Z41	X42	Y42	Z42	X43	Y43	Z43	X44	Y44	Z44	X45	Y45	Z45	X46	Y46	Z46	X47	Y47	Z47	X48	Y48	Z48	
1001	5.0050	532.165400	1360.432171	-77.724854	538.503829	1338.495407	-387.432262	483.583556	1447.447879	-241.409809	477.303089	1260.640240	-234.655115	569.903750	1134.492762	82.388091	765.090337	971.866439	-32.754180	527.714755	1097.434969	-586.337248	778.338024	963.701814	-458.638349	-89.875486	1216.079598	-259.872261	140.403320	1227.553212	-457.465278	104.777405	1224.130563	-41.422377	157.480309	1162.306604	-404.714002	137.788375	1156.996215	-71.172405	-47.324173	1285.346003	-204.352428	-45.945640	1278.952026	-299.637479	56.487045	1059.164696	-44.919689	64.374876	1112.759608	-466.410321	156.826726	919.855057	-87.471842	208.635231	878.440865	-52.113036	237.255554	797.435319	-69.904866	238.081158	899.098885	-59.778907	295.804632	709.653586	-90.097440	282.844325	683.836464	-212.501107	266.432159	555.382418	-67.948244	275.242067	469.047167	-83.180877	241.016682	388.201306	-81.987915	298.033534	467.885942	-116.796337	212.927149	247.464482	-90.219786	152.466814	219.392580	-137.409736	439.859627	224.106286	-131.648332	373.977459	186.937459	-62.243862	200.727194	1056.762989	-470.091661	285.453057	1046.889372	-460.919785	298.888581	1078.696938	-446.847374	357.173394	992.788221	-458.772605	476.110851	922.963847	-428.538614	479.000532	912.592275	-297.210089	174.183012	626.349992	-408.082332	111.258378	636.694977	-371.771678	202.841602	450.791420	-438.255278	393.675982	836.076274	-446.218491	352.972069	762.011841	-430.124681	278.841155	714.228459	-425.716280	377.407511	743.235825	-406.880011	277.873223	388.198484	-372.331673	-204.318879	957.988109	-262.048394	1.460471	82.444427	-461.145253	-15.226318	81.096527	-62.526440	
1002	5.0100	534.159897	1359.912501	-80.467096	536.651854	1340.897405	-391.782413	484.720997	1447.867657	-243.172723	477.527177	1261.121032	-237.640650	570.935732	1135.737799	82.321611	765.254920	971.927893	-34.014344	523.821579	1095.280139	-586.006160	777.240437	963.548254	-457.131003	-88.847877	1217.079920	-257.295020	139.230117	1230.150830	-456.805957	108.274842	1223.547097	-40.818182	156.711940	1165.340253	-403.362630	140.434356	1156.719938	-70.877417	-45.715667	1285.973231	-201.698028	-45.524162	1280.301356	-296.993466	56.372662	1057.810008	-44.049214	63.914183	1116.669493	-465.956449	153.304199	916.561818	-85.314953	204.864211	874.740063	-50.532819	231.986438	793.129259	-68.333107	234.649751	894.926833	-58.578672	288.978410	705.032290	-89.369272	272.937833	679.832715	-211.398121	257.993016	550.822654	-67.127296	266.647888	464.622046	-82.377264	232.053088	383.914154	-81.537363	289.103961	463.407619	-115.271514	204.836013	243.051391	-90.534967	144.315364	215.665573	-137.920859	431.625111	217.248080	-131.617224	365.311302	180.607448	-62.479122	201.040541	1061.885896	-469.703705	285.803494	1053.171784	-460.367134	298.803524	1085.202095	-446.230728	358.634674	1000.150998	-458.626653	479.506809	932.050801	-428.826466	483.224615	922.268626	-296.669692	180.016269	633.011975	-407.538956	116.618013	641.888380	-371.434136	211.606907	457.683810	-437.941278	398.503308	846.042574	-445.924863	358.375475	771.527898	-430.058210	284.694866	723.007845	-425.452307	383.091983	752.813983	-406.973389	287.774195	396.765386	-372.331822	-204.278689	958.026927	-261.975135	1.458610	82.460973	-461.165393	-15.154462	81.109851	-62.600412	
1003	5.0150	536.085658	1359.265887	-83.001859	534.663344	1343.135624	-396.000250	485.733631	1448.127966	-245.110702	477.648471	1261.457205	-240.590204	572.253351	1136.839007	82.512214	765.554966	971.905133	-35.276679	520.228165	1093.312639	-585.396063	776.213930	963.480439	-455.522638	-88.221491	1218.136720	-254.580028	137.759044	1232.566881	-455.532883	111.754181	1222.951659	-40.337901	155.925433	1168.076260	-402.061470	143.116556	1156.290337	-70.603722	-42.105412	1285.569111	-200.728430	-45.162622	1281.667361	-294.247186	56.223730	1056.483472	-43.008260	63.556068	1120.345497	-465.635571	150.230644	913.351999	-83.157844	201.335768	871.218474	-48.827077	226.919854	789.209216	-66.654051	231.591292	890.788948	-57.247348	282.659798	700.863592	-88.431000	265.993619	676.393297	-211.231306	249.865116	546.957786	-66.084842	258.275022	460.756338	-81.449862	223.226457	380.260955	-81.003122	281.162141	459.366498	-114.021352	196.575602	239.423799	-90.842531	135.888129	212.741251	-138.425206	423.059716	210.353613	-131.659295	356.415233	174.998812	-62.654650	201.389708	1066.679707	-469.280703	286.252464	1059.097286	-459.943144	298.768228	1091.322727	-445.751418	359.804285	1007.170458	-458.681763	482.611561	941.445750	-428.669458	487.004998	931.455535	-296.190869	185.843675	639.134349	-407.035512	121.958769	646.323492	-371.163533	220.451325	463.986000	-437.494716	402.884872	855.703577	-445.513490	363.581937	780.561082	-430.030499	290.202436	731.528035	-425.193911	388.513795	761.967803	-407.161827	297.849333	404.188127	-371.325171	-204.246164	958.084040	-261.914204	1.468515	82.509131	-461.154051	-15.168588	81.113432	-62.591686	
1004	5.0200	537.920867	1358.554795	-85.515649	532.583929	1345.268993	-400.351920	486.667115	1448.240717	-247.164315	477.711691	1261.655567	-243.516150	573.812560	1137.777296	82.814469	765.993914	971.763402	-36.594412	516.705055	1091.341379	-584.134039	775.369967	963.509251	-453.881948	-87.449291	1218.880926	-252.048326	136.595591	1235.108818	-454.554946	115.162635	1221.715618	-40.050405	154.987072	1170.457943	-400.625942	145.963140	1155.536498	-71.078089	-41.173186	1286.205603	-197.596820	-44.925642	1282.853251	-291.322972	56.067499	1055.154440	-41.878618	63.132049	1123.801148	-465.327287	146.834263	910.686452	-80.365122	198.047777	868.112161	-46.964352	222.228645	785.813825	-64.831389	228.399333	887.297511	-55.868249	276.861647	697.228355	-87.398117	260.447670	673.537858	-210.641429	242.325836	543.977958	-65.038385	249.743675	457.414729	-81.117074	214.846403	377.283974	-80.659957	273.398629	455.994666	-112.962606	188.087768	236.515125	-91.070166	127.404685	210.887160	-138.894826	414.400230	205.158831	-131.699182	347.257713	169.903772	-63.016284	201.618190	1071.139207	-468.792516	286.677191	1064.758606	-459.628962	298.795440	1097.086473	-445.338635	360.905762	1013.863784	-458.820825	485.449345	950.071930	-428.908744	490.303518	940.132145	-296.012329	191.588877	644.324305	-406.502365	127.355190	649.963841	-370.933093	229.644339	469.731921	-437.160702	406.896922	864.702324	-445.079953	368.339307	789.016342	-430.161276	295.404985	739.380324	-425.072664	393.563024	770.473132	-407.498314	308.253384	411.522245	-370.815740	-204.256366	958.111854	-261.839253	1.471098	82.530920	-461.150100	-15.155537	81.131769	-62.583310	
1005	5.0250	539.670373	1357.248042	-88.010650	530.598954	1347.547456	-404.319840	487.447489	1448.347831	-249.349388	477.658142	1261.846667	-247.028019	575.556153	1138.708546	83.320120	766.572843	971.536806	-37.970118	513.772812	1089.968486	-582.933289	774.617972	963.293246	-452.032051	-86.731362	1219.213449	-249.807726	135.219714	1237.498406	-453.196439	118.558652	1220.302826	-39.865017	154.418718	1172.883824	-399.979612	148.636259	1154.848024	-71.461925	-40.376790	1286.924405	-194.421666	-44.752647	1284.049849	-288.408639	56.101410	1053.852352	-40.579386	62.729657	1127.137190	-465.155946	144.399575	909.319526	-78.212086	195.004600	865.494434	-44.977420	217.804735	782.822742	-62.860525	225.732959	884.994208	-53.857217	271.895838	694.072080	-86.169411	255.596535	671.901952	-210.221910	235.423520	541.431541	-63.970724	242.296731	455.009904	-80.428905	206.841151	375.179464	-80.452438	266.409924	453.620837	-111.848262	179.366765	234.374179	-91.394391	118.792271	209.814737	-139.211932	405.544303	200.016545	-131.737820	337.955058	165.346002	-63.305175	202.398970	1076.070377	-469.035997	287.138662	1070.061280	-459.488760	298.848457	1102.548506	-444.950184	362.001828	1020.179402	-459.054118	483.853672	958.307168	-431.458354	492.912176	948.037878	-296.144162	197.418470	648.943960	-406.131636	132.809052	652.807119	-370.728370	239.081102	474.905010	-436.933302	410.431890	872.900925	-444.742491	372.650946	796.734124	-430.258080	300.224946	746.303374	-425.045835	398.199853	778.319204	-407.916178	318.936996	418.577337	-370.331039	-204.247848	958.155068	-261.796287	1.465834	82.581338	-461.125445	-15.155522	81.152884	-62.578258	
1006	5.0300	541.392434	1356.074719	-90.370219	528.428720	1349.382823	-408.466674	488.022572	1448.237542	-251.437134	477.600981	1261.822457	-250.127013	577.490985	1139.564339	83.983013	767.360664	971.292258	-39.353814	511.265160	1088.948324	-581.618422	774.021900	963.548038	-450.651315	-85.911080	1219.158050	-247.455358	133.816093	1239.847536	-451.839605	121.777375	1218.421090	-39.862101	153.921452	1175.375489	-399.612277	151.331953	1154.001940	-71.786719	-39.539733	1287.522476	-191.435109	-44.784258	1285.217816	-285.340006	56.162357	1052.645366	-39.159072	62.342616	1130.027462	-464.951958	141.653549	907.503612	-75.406188	192.195555	863.300776	-42.924490	213.688511	780.325782	-60.829333	223.077348	882.390474	-52.179152	267.504145	691.433010	-84.741276	251.621591	671.133449	-209.498772	229.389171	539.637754	-63.009752	235.514375	453.189175	-79.670908	199.456923	373.821478	-80.196006	259.830245	451.618876	-110.906646	170.680019	233.036051	-91.603561	110.174816	209.649108	-139.518555	396.660644	194.977801	-131.981318	328.500982	161.392980	-63.529002	202.756020	1080.106138	-468.686008	287.584257	1075.045359	-459.314890	298.956835	1107.586743	-444.581568	363.011260	1025.997134	-459.415713	485.850942	966.009592	-431.983239	495.888468	956.037779	-295.828446	203.305016	652.564808	-405.799145	138.202150	654.805165	-370.503910	248.694638	479.355611	-436.549113	413.381838	880.172060	-444.401207	376.555408	803.523121	-430.283480	304.719263	752.262272	-425.105542	402.488520	785.057910	-408.344290	329.585282	424.949319	-370.137667	-204.238864	958.186050	-261.784343	1.456062	82.612163	-461.112492	-15.200629	81.165205	-62.509598	
